


<svg width="338" height="214" viewBox="0 0 338 214" fill="none" xmlns="http://www.w3.org/2000/svg">
    <path fill-rule="evenodd" clip-rule="evenodd" d="M149.942 2.18513C128.772 9.0936 121.465 22.5313 121.484 54.5198C121.497 78.1173 123.829 86.1044 133.559 95.8754C142.756 105.109 151.32 107.987 169.651 108C185.94 108.013 195.2 105.298 204.164 97.8783C214.767 89.1041 216.372 83.261 216.372 53.4488C216.372 29.2644 216.034 26.7716 211.77 19.4649C204.927 7.74049 191.651 1.11599 173.064 0.153565C163.515 -0.340033 155.536 0.361295 149.942 2.18513ZM36.7188 14.1515C31.3911 21.2258 20.9501 35.0237 13.5176 44.8099L0 62.6061V75.5749C0 85.6451 0.671892 88.8049 3.00264 89.7025C4.6539 90.3391 15.7079 90.8593 27.5666 90.8593H49.1298L49.7144 98.9589L50.2971 107.058H67.3791H84.4611L85.04 99.0637C85.6132 91.1433 85.6929 91.0632 93.581 90.4877L101.543 89.9064L102.095 75.251L102.648 60.5936L94.5034 60.0047L86.3591 59.4139L85.8352 30.3507L85.3114 1.28751H65.8569H46.4024L36.7188 14.1515ZM269.355 17.0102C262.666 25.6587 252.241 39.3041 246.186 47.3369L235.18 61.9429L235.739 75.9237L236.301 89.9064L260.395 90.4381L284.488 90.9718L285.069 99.0142L285.649 107.058H302.731H319.813L320.392 99.0637C320.965 91.1433 321.045 91.0632 328.933 90.4877L336.895 89.9064L337.448 75.251L338 60.5936L329.856 60.0047L321.711 59.4139L321.188 30.3507L320.664 1.28751H301.091H281.519L269.355 17.0102ZM175.43 30.9625C179.748 35.2981 179.748 72.095 175.43 76.4306C171.357 80.5185 165.669 80.1946 163.295 75.7388C162.215 73.7111 161.33 63.033 161.33 52.0099C161.33 34.9341 161.822 31.6828 164.652 30.0267C169.338 27.2862 171.999 27.5187 175.43 30.9625ZM50.8702 51.3143L50.2971 61.3197L43.1795 61.9105C39.2659 62.2364 36.062 61.8247 36.062 60.9976C36.062 58.6078 48.2358 41.3166 49.9212 41.3128C50.7602 41.3109 51.1872 45.8104 50.8702 51.3143ZM286.223 51.3143L285.649 61.3197L278.532 61.9105C274.529 62.244 271.414 61.6437 271.414 60.5383C271.414 57.7711 283.188 41.309 285.165 41.309C286.063 41.309 286.539 45.8104 286.223 51.3143Z" fill="#8F5673"/>
    <rect x="99" y="214" width="60" height="60" rx="30" transform="rotate(-90 99 214)" fill="#FFCB17"/>
    <rect x="177" y="214" width="60" height="60" rx="30" transform="rotate(-90 177 214)" fill="#7BBB6A"/>
    <rect x="22" y="214" width="60" height="60" rx="30" transform="rotate(-90 22 214)" fill="#5C87C2"/>
    <rect x="255" y="214" width="60" height="60" rx="30" transform="rotate(-90 255 214)" fill="#E77674"/>
    <rect x="61.1898" y="169" width="10.5087" height="34.2096" transform="rotate(45 61.1898 169)" fill="white"/>
    <rect x="68.3145" y="192.19" width="10.5087" height="34.2096" transform="rotate(135 68.3145 192.19)" fill="white"/>
    <rect x="146" y="179" width="10" height="34" transform="rotate(90 146 179)" fill="white"/>
    <rect x="224" y="170" width="10" height="34" transform="rotate(90 224 170)" fill="white"/>
    <rect x="224" y="186" width="12" height="34" transform="rotate(90 224 186)" fill="white"/>
    <rect x="290" y="201" width="11" height="34" transform="rotate(-180 290 201)" fill="white"/>
    <rect x="268" y="189" width="11" height="34" transform="rotate(-90 268 189)" fill="white"/>
</svg>
