<svg width="13" height="17" viewBox="0 0 13 17" xmlns="http://www.w3.org/2000/svg">
    <path fill-rule="evenodd" clip-rule="evenodd"
          d="M6.23443 3.34681V4.74177C6.23443 5.09245 6.65526 5.2639 6.89684 5.01452L9.0711 2.84027C9.22696 2.68441 9.22696 2.44282 9.0711 2.28696L6.89684 0.112702C6.65526 -0.128883 6.23443 0.0425644 6.23443 0.393251V1.78821C2.78991 1.78821 0 4.57811 0 8.02264C0 8.83311 0.155861 9.61242 0.444203 10.3216C0.654615 10.8437 1.32482 10.984 1.72226 10.5865C1.93267 10.3761 2.0184 10.0566 1.9015 9.77607C1.6755 9.23835 1.55861 8.63829 1.55861 8.02264C1.55861 5.44314 3.65494 3.34681 6.23443 3.34681ZM10.7465 5.45873C10.5361 5.66914 10.4504 5.99645 10.5673 6.2692C10.7855 6.81472 10.9102 7.40699 10.9102 8.02264C10.9102 10.6021 8.81385 12.6985 6.23435 12.6985V11.3035C6.23435 10.9528 5.81353 10.7814 5.57195 11.0308L3.39769 13.205C3.24183 13.3609 3.24183 13.6025 3.39769 13.7583L5.57195 15.9326C5.81353 16.1742 6.23435 16.0027 6.23435 15.6598V14.2571C9.67888 14.2571 12.4688 11.4672 12.4688 8.02264C12.4688 7.21216 12.3129 6.43286 12.0246 5.72369C11.8142 5.20156 11.144 5.06128 10.7465 5.45873Z"
          fill="black"/>
</svg>
