<svg width="14" height="15" viewBox="0 0 14 15" xmlns="http://www.w3.org/2000/svg">
    <path fill-rule="evenodd" clip-rule="evenodd"
          d="M9.74046 9.48219H9.12481L8.9066 9.27178C9.84177 8.18076 10.3249 6.69229 10.06 5.1103C9.6937 2.94383 7.88572 1.21378 5.70366 0.948816C2.40721 0.543577 -0.359321 3.3179 0.0381237 6.61436C0.303087 8.79641 2.03314 10.6044 4.19961 10.9707C5.78159 11.2356 7.27006 10.7525 8.36109 9.8173L8.5715 10.0355V10.6512L11.8913 13.9632C12.2109 14.2827 12.7252 14.2827 13.0447 13.9632L13.0525 13.9554C13.372 13.6359 13.372 13.1215 13.0525 12.802L9.74046 9.48219ZM5.06463 9.48221C3.12417 9.48221 1.55777 7.91581 1.55777 5.97534C1.55777 4.03488 3.12417 2.46848 5.06463 2.46848C7.0051 2.46848 8.5715 4.03488 8.5715 5.97534C8.5715 7.91581 7.0051 9.48221 5.06463 9.48221Z"
          fill="black"/>
</svg>
