<svg xmlns="http://www.w3.org/2000/svg" viewBox="0 0 283 76">
    <path d="M116.896 21.677c4.582 0 8.104.871 10.568 2.612 2.463 1.742 3.695 4.339 3.695 7.791 0 1.883-.337 3.491-1.012 4.825-.675 1.333-1.648 2.416-2.918 3.248-1.271.831-2.817 1.435-4.637 1.812-1.82.377-3.876.565-6.167.565h-3.624v12.098h-4.566V22.477c1.286-.314 2.722-.526 4.307-.636 1.585-.11 3.036-.164 4.354-.164zm.377 4.001l-4.472.141v12.804h3.436c1.569 0 2.981-.102 4.236-.306 1.256-.204 2.315-.549 3.178-1.036.863-.486 1.53-1.153 2-2 .471-.848.707-1.93.707-3.248 0-1.256-.244-2.291-.73-3.107-.486-.816-1.146-1.467-1.977-1.954-.832-.486-1.797-.824-2.895-1.012-1.098-.188-2.259-.282-3.483-.282zm26.69 25.796l2.754-.071 2-.259v-7.296c-.314-.157-.824-.29-1.53-.4-.706-.11-1.561-.165-2.565-.165l-2.095.141c-.737.094-1.412.29-2.024.589-.612.298-1.122.705-1.53 1.223-.408.519-.612 1.201-.612 2.048 0 1.569.502 2.66 1.506 3.272 1.005.612 2.37.918 4.096.918zm-.377-21.936c1.757 0 3.241.227 4.449.682 1.208.455 2.181 1.099 2.918 1.931.738.831 1.263 1.819 1.577 2.965.314 1.145.471 2.408.471 3.789v15.299l-9.556.941c-1.381 0-2.652-.141-3.813-.423-1.161-.283-2.165-.73-3.013-1.342-.847-.612-1.506-1.42-1.977-2.424-.47-1.004-.706-2.213-.706-3.625 0-1.349.275-2.51.824-3.483.549-.973 1.295-1.758 2.236-2.354.941-.596 2.04-1.035 3.295-1.318 1.255-.282 2.574-.424 3.954-.424.439 0 .894.024 1.365.071l1.342.189 1.765.352v-1.223c0-.722-.078-1.436-.235-2.142-.157-.706-.44-1.334-.848-1.883-.407-.549-.965-.989-1.671-1.318-.706-.33-1.624-.494-2.753-.494l-3.79.306c-1.082.204-1.89.415-2.424.635l-.518-3.624c.565-.251 1.507-.495 2.825-.73 1.318-.236 2.745-.353 4.283-.353zm33.657 12.898c0-2.856-.706-5.053-2.118-6.591-1.412-1.537-3.295-2.306-5.649-2.306l-3.083.141-1.765.33v15.44c.533.439 1.302.863 2.306 1.271 1.004.407 2.103.611 3.295.611 1.256 0 2.33-.227 3.225-.682.894-.455 1.624-1.083 2.189-1.883s.973-1.742 1.223-2.825c.252-1.082.377-2.251.377-3.506zm4.566 0c0 1.851-.243 3.561-.729 5.131-.487 1.569-1.201 2.918-2.142 4.048-.942 1.13-2.095 2.008-3.46 2.636-1.365.628-2.926.941-4.684.941-1.412 0-2.659-.188-3.742-.564-1.083-.377-1.891-.738-2.424-1.083v9.791h-4.378V30.903l3.883-.824c1.554-.298 3.35-.447 5.39-.447 1.883 0 3.578.298 5.084.894 1.506.597 2.793 1.444 3.86 2.542 1.067 1.099 1.891 2.44 2.471 4.025.581 1.585.871 3.366.871 5.343zm14.452 9.038l2.753-.071 2.001-.259v-7.296c-.314-.157-.824-.29-1.53-.4-.706-.11-1.561-.165-2.565-.165l-2.095.141c-.738.094-1.412.29-2.024.589-.612.298-1.122.705-1.53 1.223-.408.519-.612 1.201-.612 2.048 0 1.569.502 2.66 1.506 3.272 1.004.612 2.369.918 4.096.918zm-.377-21.936c1.757 0 3.24.227 4.448.682 1.209.455 2.181 1.099 2.919 1.931.737.831 1.263 1.819 1.577 2.965.314 1.145.471 2.408.471 3.789v15.299l-9.556.941c-1.381 0-2.652-.141-3.813-.423-1.161-.283-2.165-.73-3.013-1.342-.847-.612-1.506-1.42-1.977-2.424-.471-1.004-.706-2.213-.706-3.625 0-1.349.275-2.51.824-3.483.549-.973 1.294-1.758 2.236-2.354.941-.596 2.04-1.035 3.295-1.318 1.255-.282 2.573-.424 3.954-.424.439 0 .894.024 1.365.071l1.342.189 1.765.352v-1.223c0-.722-.078-1.436-.235-2.142-.158-.706-.44-1.334-.848-1.883-.408-.549-.965-.989-1.671-1.318-.706-.33-1.624-.494-2.754-.494l-3.789.306c-1.083.204-1.891.415-2.424.635l-.518-3.624c.565-.251 1.507-.495 2.824-.73 1.318-.236 2.746-.353 4.284-.353zm21.042 1.694c.533-.345 1.341-.706 2.424-1.082 1.082-.377 2.33-.565 3.742-.565 1.757 0 3.319.314 4.684.941 1.365.628 2.518 1.507 3.46 2.636.941 1.13 1.655 2.48 2.141 4.049.487 1.569.73 3.295.73 5.177 0 1.978-.29 3.759-.871 5.343-.58 1.585-1.404 2.927-2.471 4.025-1.067 1.098-2.354 1.946-3.86 2.542-1.506.596-3.201.894-5.084.894-2.04 0-3.844-.141-5.413-.423-1.569-.283-2.856-.565-3.86-.848V18.852l4.378-.753v13.133zm0 19.583c.439.125 1.059.243 1.859.353l2.989.164c2.354 0 4.236-.776 5.649-2.33 1.412-1.553 2.118-3.758 2.118-6.614 0-1.255-.126-2.431-.377-3.53-.251-1.098-.659-2.047-1.224-2.848-.564-.8-1.294-1.428-2.188-1.883-.895-.455-1.97-.682-3.225-.682-1.192 0-2.291.204-3.295.612-1.004.408-1.773.831-2.306 1.271v15.487zm44.954-8.427c0 1.946-.283 3.704-.848 5.273-.564 1.569-1.357 2.918-2.377 4.048-1.02 1.13-2.236 2-3.648 2.612-1.412.612-2.95.918-4.613.918-1.663 0-3.201-.306-4.613-.918-1.412-.612-2.628-1.482-3.648-2.612-1.02-1.13-1.812-2.479-2.377-4.048-.565-1.569-.848-3.327-.848-5.273 0-1.914.283-3.663.848-5.248.565-1.585 1.357-2.942 2.377-4.072 1.02-1.13 2.236-2 3.648-2.612 1.412-.612 2.95-.918 4.613-.918 1.663 0 3.201.306 4.613.918 1.412.612 2.628 1.482 3.648 2.612 1.02 1.13 1.813 2.487 2.377 4.072.565 1.585.848 3.334.848 5.248zm-4.566 0c0-2.761-.62-4.95-1.86-6.566-1.239-1.616-2.926-2.424-5.06-2.424-2.134 0-3.82.808-5.06 2.424-1.24 1.616-1.86 3.805-1.86 6.566 0 2.762.62 4.951 1.86 6.567 1.24 1.616 2.926 2.424 5.06 2.424 2.134 0 3.821-.808 5.06-2.424 1.24-1.616 1.86-3.805 1.86-6.567zm14.828-12.238h9.273v3.671h-9.273v11.298c0 1.224.094 2.236.282 3.036.188.8.471 1.428.847 1.883.377.455.848.777 1.413.965.565.188 1.223.282 1.977.282 1.318 0 2.377-.149 3.177-.447l1.671-.635.847 3.624c-.439.22-1.208.494-2.306.824-1.099.329-2.354.494-3.766.494-1.663 0-3.036-.212-4.119-.635-1.083-.424-1.953-1.059-2.612-1.907-.659-.847-1.122-1.89-1.389-3.13-.267-1.24-.4-2.675-.4-4.307V23.324l4.378-.753v7.579z"/>
    <path fill="url(#paint0_linear)" fill-rule="evenodd"
          d="M1.85742 18.391C2.35242 8.288 10.1454.495 20.2494 0h38.285c10.103.495 17.897 8.288 18.392 18.391.668 13.62.667 24.666 0 38.286-.495 10.103-8.289 17.897-18.392 18.392h-38.285c-10.103-.495-17.89698-8.289-18.39198-18.392V18.391z"
          clip-rule="evenodd"/>
    <path fill="#fff" fill-rule="evenodd"
          d="M17.792 19.965H60.99c9.787 0 17.793 8.007 17.793 17.793 0 8.069-5.444 14.927-12.839 17.086v12.747l-15.538-12.04H17.792C8.006 55.551 0 47.544 0 37.758s8.006-17.793 17.792-17.793z"
          clip-rule="evenodd"/>
    <path fill="#2C3D4F" fill-rule="evenodd"
          d="M61.7987 34.227c-1.762-1.76-4.194-2.85-6.882-2.85-2.687 0-5.12 1.089-6.881 2.85-1.761 1.762-2.851 4.195-2.851 6.882 0 .713.29 1.359.757 1.826.467.468 1.113.757 1.826.757.713 0 1.359-.289 1.827-.757l-.002-.002c.469-.469.758-1.115.758-1.824 0-1.261.512-2.403 1.338-3.229.826-.826 1.967-1.337 3.228-1.337 1.261 0 2.403.511 3.229 1.337.826.826 1.337 1.968 1.337 3.229 0 .713.289 1.359.757 1.826.467.468 1.113.757 1.826.757.713 0 1.359-.289 1.827-.757l-.002-.002c.469-.469.758-1.115.758-1.824 0-2.687-1.089-5.12-2.85-6.882zm-30.589 0c-1.761-1.76-4.194-2.85-6.881-2.85-2.687 0-5.12 1.089-6.882 2.85-1.761 1.762-2.85 4.195-2.85 6.882 0 .713.289 1.359.757 1.826.467.468 1.113.757 1.826.757.713 0 1.359-.289 1.827-.757l-.002-.002c.469-.469.758-1.115.758-1.824 0-1.261.511-2.403 1.337-3.229.826-.826 1.968-1.337 3.229-1.337 1.261 0 2.403.511 3.229 1.337.825.826 1.337 1.968 1.337 3.229 0 .713.289 1.359.756 1.826.468.468 1.114.757 1.827.757.713 0 1.359-.289 1.826-.757l-.002-.002c.469-.469.759-1.115.759-1.824 0-2.687-1.09-5.12-2.851-6.882z"
          clip-rule="evenodd"/>
    <defs>
        <linearGradient id="paint0_linear" x1="68.3484" x2=".902419" y1="-6.991" y2="98.695"
                        gradientUnits="userSpaceOnUse">
            <stop stop-color="#F50A74"/>
            <stop offset="1" stop-color="#762E85"/>
        </linearGradient>
    </defs>
</svg>
