<?xml version="1.0" encoding="UTF-8"?>

<svg xmlns="http://www.w3.org/2000/svg" style="display: none;">


    <symbol id="viber" viewBox="0 0 451 451">
        <circle cx="225.5" cy="225.5" r="225.5" fill="#7D3EAF"/>
        <circle cx="225.5" cy="225.5" r="225.5" fill="url(#paint0_linear)" fill-opacity="0.2"/>
        <path fill-rule="evenodd" clip-rule="evenodd" d="M188.304 79.6997C146.648 84.2858 115.399 103.344 98.645 134.378C93.4559 143.991 88.6744 158.12 86.4494 170.412C82.5134 192.162 83.4989 248.626 88.1321 266.778C90.8983 277.617 96.8571 290.385 103.866 300.492C110.093 309.473 123.658 322.877 132.848 329.131C140.31 334.209 143.294 337.258 144.958 341.51C145.64 343.252 146.529 354.046 146.947 365.653C147.519 381.526 148.128 387.621 149.439 390.638C151.039 394.318 151.36 394.531 153.574 393.386C157.591 391.307 164.838 385.156 178.087 372.579C195.515 356.036 202.191 350.673 206.789 349.524C208.956 348.982 223.523 348.27 239.16 347.941C256.252 347.582 271.738 346.705 277.99 345.745C299.606 342.422 316.269 334.28 332.44 319.137C350.929 301.823 361.722 283.412 366.709 260.683C368.875 250.807 369.688 214.93 368.348 188.253C367.441 170.175 366.9 166.019 364.453 158.336C358.307 139.034 348.127 122.572 334.189 109.395C318.994 95.0296 303.721 87.1222 281.279 82.0017C270.299 79.4971 267.809 79.3438 233.369 79.0489C213.388 78.8778 193.109 79.1706 188.304 79.6997ZM259.664 125.351C279.52 129.93 297.925 144.938 306.982 163.937C312.087 174.648 313.752 182.649 313.842 196.893L313.922 209.732L310.443 213.164C307.204 216.358 306.868 216.467 305.575 214.74C304.702 213.574 303.903 207.762 303.421 199.073C302.141 176.013 298.273 166.332 285.001 152.98C279.053 146.996 275.087 144.052 269.154 141.216C260.834 137.238 250.101 134.251 243.899 134.186C240.278 134.148 231.263 130.748 231.263 129.42C231.263 129.048 232.286 127.31 233.538 125.558L235.814 122.372L244.331 123.077C249.016 123.464 255.916 124.488 259.664 125.351ZM179.264 143.245C184.085 145.526 202.94 164.227 206.467 170.226C209.791 175.883 210.202 182.002 207.53 186.069C206.504 187.628 202.851 191.064 199.411 193.703C187.99 202.464 186.715 207.78 193.016 220.391C198.466 231.296 213.883 246.666 224.823 252.098C229.978 254.657 234.053 255.959 236.915 255.959C240.963 255.959 241.79 255.384 250.199 246.711C255.132 241.624 260.689 236.85 262.551 236.102C267.799 233.992 273.466 237.385 286.633 250.518C304.007 267.849 306.188 272.39 301.784 282.065C299.033 288.111 285.222 302.164 278.908 305.343C272.215 308.713 260.971 309.37 253.192 306.847C238.533 302.092 211.101 285.804 195.717 272.721C167.337 248.588 138.649 201.995 138.208 179.318C138.084 173.035 138.438 171.871 142.581 164.911C147.894 155.984 157.169 145.659 162.015 143.278C166.457 141.095 174.686 141.079 179.264 143.245ZM257.587 146.498C273.826 151.753 287.597 167.281 291.172 184.368C293.062 193.407 292.687 201.024 290.23 203.474C286.021 207.669 284.545 205.761 281.913 192.723C279.315 179.845 276.84 174.383 270.582 167.713C264.507 161.239 258.217 157.893 246.787 155.058C237.95 152.865 232.316 150.518 232.316 149.031C232.316 148.167 236.35 145.887 240.213 144.568C242.993 143.621 251.671 144.583 257.587 146.498ZM253.465 167.829C259.936 171.12 266.084 177.205 268.798 183.004C271.71 189.223 271.831 192.3 269.348 196.939L267.51 200.377L264.752 197.464C263.236 195.862 261.215 192.662 260.262 190.352C257.957 184.769 253.98 180.752 247.584 177.545C244.688 176.093 241.02 173.691 239.432 172.206C236.726 169.676 236.653 169.386 238.279 167.595C240.652 164.98 248.087 165.094 253.465 167.829Z" fill="white"/>
        <defs>
        <linearGradient id="paint0_linear" x1="225.5" y1="0" x2="225.5" y2="451" gradientUnits="userSpaceOnUse">
        <stop stop-color="white"/>
        <stop offset="1" stop-color="white" stop-opacity="0"/>
        </linearGradient>
        </defs>
    </symbol>

    <symbol id="whatsapp" viewBox="0 0 451 451">
        <mask id="mask0" mask-type="alpha" maskUnits="userSpaceOnUse" x="0" y="0" width="451" height="451">
        <circle cx="225.5" cy="225.5" r="225.5" fill="#C4C4C4"/>
        </mask>
        <g mask="url(#mask0)">
        <path d="M450.327 0H-0.67334V451H450.327V0Z" fill="#1BD741"/>
        <path d="M67.1097 383.388L89.201 304.927C74.995 280.793 67.5155 253.335 67.5155 225.126C67.5155 138.273 138.176 67.6117 225.03 67.6117C311.884 67.6117 382.544 138.273 382.544 225.126C382.544 311.98 311.884 382.641 225.03 382.641C197.967 382.641 171.467 375.714 148.024 362.56L67.1097 383.388ZM152.161 333.903L156.982 336.847C177.422 349.326 200.953 355.921 225.03 355.921C297.151 355.921 355.824 297.247 355.824 225.126C355.824 153.006 297.151 94.3314 225.03 94.3314C152.91 94.3314 94.2352 153.006 94.2352 225.126C94.2352 250.256 101.377 274.659 114.888 295.697L118.134 300.753L105.413 345.937L152.161 333.903Z" fill="white"/>
        <path d="M180.782 151.814L170.561 151.257C167.351 151.082 164.202 152.155 161.776 154.263C156.821 158.566 148.898 166.884 146.464 177.725C142.835 193.888 148.443 213.68 162.958 233.473C177.473 253.265 204.522 284.933 252.353 298.458C267.767 302.816 279.892 299.878 289.246 293.894C296.656 289.155 301.763 281.548 303.604 272.948L305.236 265.326C305.754 262.903 304.524 260.445 302.274 259.408L267.731 243.486C265.489 242.453 262.83 243.106 261.321 245.06L247.761 262.64C246.736 263.968 244.983 264.494 243.399 263.938C234.113 260.675 203.005 247.646 185.936 214.767C185.196 213.341 185.38 211.61 186.43 210.394L199.39 195.401C200.714 193.87 201.049 191.718 200.253 189.857L185.363 155.022C184.571 153.167 182.794 151.924 180.782 151.814Z" fill="white"/>
        </g>
    </symbol>

    <symbol id="comments" viewBox="0 0 120 120">
        <path d="M60 120C93.1371 120 120 93.1371 120 60C120 26.8629 93.1371 0 60 0C26.8629 0 0 26.8629 0 60C0 93.1371 26.8629 120 60 120Z" fill="#FFCB17"/>
        <path d="M60 120C93.1371 120 120 93.1371 120 60C120 26.8629 93.1371 0 60 0C26.8629 0 0 26.8629 0 60C0 93.1371 26.8629 120 60 120Z" fill="url(#paint0_linear)" fill-opacity="0.3"/>
        <path d="M49.9849 21C31.7679 21 17 32.9704 17 47.7363C17 53.2443 19.0551 58.3634 22.5772 62.6173V82.2978L34.6691 71.422C39.246 73.3703 44.4565 74.473 49.9849 74.473C68.202 74.473 82.9699 62.5026 82.9699 47.7368C82.9699 32.9709 68.202 21 49.9849 21V21Z" fill="#FE6A16"/>
        <path d="M49.9849 21C31.7679 21 17 32.9704 17 47.7363C17 53.2443 19.0551 58.3634 22.5772 62.6173V82.2978L34.6691 71.422C39.246 73.3703 44.4565 74.473 49.9849 74.473C68.202 74.473 82.9699 62.5026 82.9699 47.7368C82.9699 32.9709 68.202 21 49.9849 21V21Z" fill="url(#paint1_linear)" fill-opacity="0.3"/>
        <path d="M70.4192 38.4018C88.6363 38.4018 103.404 50.3722 103.404 65.138C103.404 70.646 101.349 75.7652 97.827 80.0191V99.6996L85.7353 88.8238C81.1585 90.7721 75.9479 91.8746 70.4195 91.8746C52.2025 91.8746 37.4346 79.9042 37.4346 65.1383C37.4346 50.3724 52.2022 38.4018 70.4192 38.4018V38.4018Z" fill="white"/>
        <path d="M54.8645 70.2265C57.6885 70.2265 59.9778 67.9373 59.9778 65.1133C59.9778 62.2893 57.6885 60 54.8645 60C52.0405 60 49.7512 62.2893 49.7512 65.1133C49.7512 67.9373 52.0405 70.2265 54.8645 70.2265Z" fill="#FE6A16"/>
        <path d="M70.4193 70.2265C73.2433 70.2265 75.5326 67.9373 75.5326 65.1133C75.5326 62.2893 73.2433 60 70.4193 60C67.5953 60 65.306 62.2893 65.306 65.1133C65.306 67.9373 67.5953 70.2265 70.4193 70.2265Z" fill="#FE6A16"/>
        <path d="M85.7941 70.2265C88.618 70.2265 90.9073 67.9373 90.9073 65.1133C90.9073 62.2893 88.618 60 85.7941 60C82.9701 60 80.6808 62.2893 80.6808 65.1133C80.6808 67.9373 82.9701 70.2265 85.7941 70.2265Z" fill="#FE6A16"/>
        <defs>
        <linearGradient id="paint0_linear" x1="60" y1="0" x2="60" y2="120" gradientUnits="userSpaceOnUse">
        <stop stop-color="white"/>
        <stop offset="1" stop-color="white" stop-opacity="0"/>
        </linearGradient>
        <linearGradient id="paint1_linear" x1="49.9849" y1="21" x2="49.9849" y2="82.2978" gradientUnits="userSpaceOnUse">
        <stop stop-color="white"/>
        <stop offset="1" stop-color="white" stop-opacity="0"/>
        </linearGradient>
        </defs>
    </symbol>

    <symbol id="email" viewBox="0 0 121 121">
        <path d="M60.5 121C93.9132 121 121 93.9132 121 60.5C121 27.0868 93.9132 0 60.5 0C27.0868 0 0 27.0868 0 60.5C0 93.9132 27.0868 121 60.5 121Z" fill="#D75746"/>
        <path d="M60.5 121C93.9132 121 121 93.9132 121 60.5C121 27.0868 93.9132 0 60.5 0C27.0868 0 0 27.0868 0 60.5C0 93.9132 27.0868 121 60.5 121Z" fill="url(#paint0_linear)" fill-opacity="0.3"/>
        <path d="M65.4751 23.3154C53.206 21.7632 41.3795 25.9849 33.0101 34.9905C24.6558 43.9961 21.3036 56.1736 23.8159 68.4111C26.7331 82.5832 37.6973 93.8009 51.7512 96.9952C54.6909 97.6701 57.6307 98 60.533 98C66.3 98 71.9246 96.6878 77.1291 94.1083C78.9815 93.186 79.7389 90.9365 78.824 89.0768C77.8941 87.2172 75.6593 86.4749 73.7919 87.3822C67.5299 90.4941 60.4805 91.2889 53.416 89.6842C42.3919 87.1797 33.4526 78.0166 31.1653 66.9039C29.1404 57.0659 31.8252 47.2955 38.5072 40.0894C45.1967 32.8909 54.6684 29.4941 64.5151 30.7539C79.334 32.6735 90.5006 46.1257 90.5006 62.0599V64.242C90.5006 68.3811 87.1409 71.7404 83.0012 71.7404C78.8615 71.7404 75.5018 68.3811 75.5018 64.242V49.2451C75.5018 47.1755 73.8219 45.4958 71.7521 45.4958C70.2147 45.4958 68.9023 46.4256 68.3248 47.7454C66.09 46.3357 63.4652 45.4958 60.503 45.4958C51.6687 45.4958 45.5041 52.4319 45.5041 62.3674C45.5041 72.3028 51.6687 79.2389 60.503 79.2389C65.1601 79.2389 69.0373 77.2743 71.6996 73.99C74.4519 77.1768 78.4715 79.2389 83.0012 79.2389C91.273 79.2389 98 72.5128 98 64.242V62.0599C98 42.369 84.0211 25.7149 65.4751 23.3154ZM60.503 71.7404C55.8758 71.7404 53.0036 68.1487 53.0036 62.3674C53.0036 56.586 55.8758 52.9943 60.503 52.9943C65.1301 52.9943 68.0024 56.586 68.0024 62.3674C68.0024 68.1487 65.1301 71.7404 60.503 71.7404Z" fill="#FAFAFA"/>
        <defs>
        <linearGradient id="paint0_linear" x1="60.5" y1="0" x2="60.5" y2="121" gradientUnits="userSpaceOnUse">
        <stop stop-color="white"/>
        <stop offset="1" stop-color="white" stop-opacity="0"/>
        </linearGradient>
        </defs>
    </symbol>


    <symbol id="facebook" viewBox="0 0 121 121">
        <path d="M105.952 0H15.2019C6.86047 0 0.0769043 6.78356 0.0769043 15.125V105.875C0.0769043 114.216 6.86047 121 15.2019 121H105.952C114.293 121 121.077 114.216 121.077 105.875V15.125C121.077 6.78356 114.293 0 105.952 0Z" fill="#1976D2"/>
        <path d="M105.952 0H15.2019C6.86047 0 0.0769043 6.78356 0.0769043 15.125V105.875C0.0769043 114.216 6.86047 121 15.2019 121H105.952C114.293 121 121.077 114.216 121.077 105.875V15.125C121.077 6.78356 114.293 0 105.952 0Z" fill="url(#paint0_linear)" fill-opacity="0.3"/>
        <path d="M102.171 60.5H83.2644V45.375C83.2644 41.2005 86.6524 41.5937 90.8269 41.5937H98.3894V22.6875H83.2644C70.7333 22.6875 60.5769 32.8439 60.5769 45.375V60.5H45.4519V79.4062H60.5769V121H83.2644V79.4062H94.6081L102.171 60.5Z" fill="#FAFAFA"/>
        <defs>
        <linearGradient id="paint0_linear" x1="60.5769" y1="0" x2="60.5769" y2="121" gradientUnits="userSpaceOnUse">
        <stop stop-color="white"/>
        <stop offset="1" stop-color="white" stop-opacity="0"/>
        </linearGradient>
        </defs>
    </symbol>


    <symbol id="instagram" viewBox="0 0 3364.7 3364.7">
        <defs><radialGradient id="0" cx="217.76" cy="3290.99" r="4271.92" gradientUnits="userSpaceOnUse"><stop offset=".09" stop-color="#fa8f21"/><stop offset=".78" stop-color="#d82d7e"/></radialGradient><radialGradient id="1" cx="2330.61" cy="3182.95" r="3759.33" gradientUnits="userSpaceOnUse"><stop offset=".64" stop-color="#8c3aaa" stop-opacity="0"/><stop offset="1" stop-color="#8c3aaa"/></radialGradient></defs><path d="M853.2,3352.8c-200.1-9.1-308.8-42.4-381.1-70.6-95.8-37.3-164.1-81.7-236-153.5S119.7,2988.6,82.6,2892.8c-28.2-72.3-61.5-181-70.6-381.1C2,2295.4,0,2230.5,0,1682.5s2.2-612.8,11.9-829.3C21,653.1,54.5,544.6,82.5,472.1,119.8,376.3,164.3,308,236,236c71.8-71.8,140.1-116.4,236-153.5C544.3,54.3,653,21,853.1,11.9,1069.5,2,1134.5,0,1682.3,0c548,0,612.8,2.2,829.3,11.9,200.1,9.1,308.6,42.6,381.1,70.6,95.8,37.1,164.1,81.7,236,153.5s116.2,140.2,153.5,236c28.2,72.3,61.5,181,70.6,381.1,9.9,216.5,11.9,281.3,11.9,829.3,0,547.8-2,612.8-11.9,829.3-9.1,200.1-42.6,308.8-70.6,381.1-37.3,95.8-81.7,164.1-153.5,235.9s-140.2,116.2-236,153.5c-72.3,28.2-181,61.5-381.1,70.6-216.3,9.9-281.3,11.9-829.3,11.9-547.8,0-612.8-1.9-829.1-11.9" fill="url(#0)"/><path d="M853.2,3352.8c-200.1-9.1-308.8-42.4-381.1-70.6-95.8-37.3-164.1-81.7-236-153.5S119.7,2988.6,82.6,2892.8c-28.2-72.3-61.5-181-70.6-381.1C2,2295.4,0,2230.5,0,1682.5s2.2-612.8,11.9-829.3C21,653.1,54.5,544.6,82.5,472.1,119.8,376.3,164.3,308,236,236c71.8-71.8,140.1-116.4,236-153.5C544.3,54.3,653,21,853.1,11.9,1069.5,2,1134.5,0,1682.3,0c548,0,612.8,2.2,829.3,11.9,200.1,9.1,308.6,42.6,381.1,70.6,95.8,37.1,164.1,81.7,236,153.5s116.2,140.2,153.5,236c28.2,72.3,61.5,181,70.6,381.1,9.9,216.5,11.9,281.3,11.9,829.3,0,547.8-2,612.8-11.9,829.3-9.1,200.1-42.6,308.8-70.6,381.1-37.3,95.8-81.7,164.1-153.5,235.9s-140.2,116.2-236,153.5c-72.3,28.2-181,61.5-381.1,70.6-216.3,9.9-281.3,11.9-829.3,11.9-547.8,0-612.8-1.9-829.1-11.9" fill="url(#1)"/><path d="M1269.25,1689.52c0-230.11,186.49-416.7,416.6-416.7s416.7,186.59,416.7,416.7-186.59,416.7-416.7,416.7-416.6-186.59-416.6-416.7m-225.26,0c0,354.5,287.36,641.86,641.86,641.86s641.86-287.36,641.86-641.86-287.36-641.86-641.86-641.86S1044,1335,1044,1689.52m1159.13-667.31a150,150,0,1,0,150.06-149.94h-0.06a150.07,150.07,0,0,0-150,149.94M1180.85,2707c-121.87-5.55-188.11-25.85-232.13-43-58.36-22.72-100-49.78-143.78-93.5s-70.88-85.32-93.5-143.68c-17.16-44-37.46-110.26-43-232.13-6.06-131.76-7.27-171.34-7.27-505.15s1.31-373.28,7.27-505.15c5.55-121.87,26-188,43-232.13,22.72-58.36,49.78-100,93.5-143.78s85.32-70.88,143.78-93.5c44-17.16,110.26-37.46,232.13-43,131.76-6.06,171.34-7.27,505-7.27S2059.13,666,2191,672c121.87,5.55,188,26,232.13,43,58.36,22.62,100,49.78,143.78,93.5s70.78,85.42,93.5,143.78c17.16,44,37.46,110.26,43,232.13,6.06,131.87,7.27,171.34,7.27,505.15s-1.21,373.28-7.27,505.15c-5.55,121.87-25.95,188.11-43,232.13-22.72,58.36-49.78,100-93.5,143.68s-85.42,70.78-143.78,93.5c-44,17.16-110.26,37.46-232.13,43-131.76,6.06-171.34,7.27-505.15,7.27s-373.28-1.21-505-7.27M1170.5,447.09c-133.07,6.06-224,27.16-303.41,58.06-82.19,31.91-151.86,74.72-221.43,144.18S533.39,788.47,501.48,870.76c-30.9,79.46-52,170.34-58.06,303.41-6.16,133.28-7.57,175.89-7.57,515.35s1.41,382.07,7.57,515.35c6.06,133.08,27.16,223.95,58.06,303.41,31.91,82.19,74.62,152,144.18,221.43s139.14,112.18,221.43,144.18c79.56,30.9,170.34,52,303.41,58.06,133.35,6.06,175.89,7.57,515.35,7.57s382.07-1.41,515.35-7.57c133.08-6.06,223.95-27.16,303.41-58.06,82.19-32,151.86-74.72,221.43-144.18s112.18-139.24,144.18-221.43c30.9-79.46,52.1-170.34,58.06-303.41,6.06-133.38,7.47-175.89,7.47-515.35s-1.41-382.07-7.47-515.35c-6.06-133.08-27.16-224-58.06-303.41-32-82.19-74.72-151.86-144.18-221.43S2586.8,537.06,2504.71,505.15c-79.56-30.9-170.44-52.1-303.41-58.06C2068,441,2025.41,439.52,1686,439.52s-382.1,1.41-515.45,7.57" fill="#fff"/>
    </symbol>

    <symbol id="odnoklassniki" viewBox="0 0 121 121">
        <rect x="32.6187" y="21.3616" width="60.0779" height="92.1195" fill="white"/>
        <path fill-rule="evenodd" clip-rule="evenodd" d="M52.5553 0.483293C26.6427 4.67314 7.15418 23.0455 1.61039 48.5105C0.232408 54.8391 0.232408 66.1854 1.61039 72.5139C6.89638 96.7961 24.9275 114.714 49.3766 119.982C55.6973 121.344 67.1216 121.339 73.5321 119.972C86.1905 117.273 96.4619 111.623 105.3 102.5C113.712 93.8143 118.742 84.3778 121.283 72.5139C122.574 66.4866 122.669 55.7138 121.486 49.4589C116.855 24.9757 97.4486 5.61722 72.7958 0.889013C67.6363 -0.100149 57.4304 -0.305176 52.5553 0.483293ZM64.3185 28.9072C69.2861 29.8109 73.4968 32.9995 76.0033 37.7554C77.2744 40.1668 77.3743 40.6718 77.3743 44.6908C77.3743 48.7129 77.2748 49.214 75.9972 51.644C69.6307 63.7506 53.2781 63.7506 46.9116 51.644C45.6318 49.2097 45.5349 48.7203 45.5419 44.6908C45.5484 40.8322 45.6824 40.0896 46.7602 37.9297C48.9805 33.4811 53.34 30.0125 57.9525 29.0251C61.0823 28.3549 61.2659 28.3515 64.3185 28.9072ZM58.069 37.3883C53.6454 39.5552 52.0161 45.0406 54.6452 48.9171C58.9348 55.2426 68.5908 53.0411 69.2119 45.5959C69.4636 42.5825 69.1644 41.4208 67.6887 39.6778C65.3825 36.9544 61.057 35.9249 58.069 37.3883ZM47.2623 62.2634C57.019 66.7424 65.3018 66.7935 75.2015 62.4355C77.6042 61.3779 80.156 60.5135 80.8722 60.5153C82.4112 60.5183 84.5067 61.7892 85.2919 63.1954C86.0518 64.5564 86.0221 67.2218 85.23 68.7441C84.4932 70.1598 78.3457 73.4563 74.2205 74.6479L71.8148 75.3427L75.9653 79.5226C78.248 81.8217 80.3335 84.1286 80.5996 84.6492C81.8912 87.1754 80.4735 90.8611 77.7795 91.9799C74.7788 93.2257 73.6133 92.6067 67.2342 86.3782L61.4544 80.735L55.6746 86.3782C49.2955 92.6067 48.1299 93.2257 45.1292 91.9799C42.4352 90.8611 41.0175 87.1754 42.3092 84.6492C42.5752 84.1286 44.6507 81.8317 46.9208 79.5451L51.0486 75.3882L48.0724 74.4025C43.3936 72.8529 38.3951 70.1204 37.6618 68.7112C36.8849 67.2179 36.8626 64.5456 37.6169 63.1954C38.4121 61.7714 40.5037 60.5183 42.0911 60.5153C42.8374 60.5135 45.1646 61.3003 47.2623 62.2634Z" fill="#FF9600"/>
        <path fill-rule="evenodd" clip-rule="evenodd" d="M52.5553 0.483293C26.6427 4.67314 7.15418 23.0455 1.61039 48.5105C0.232408 54.8391 0.232408 66.1854 1.61039 72.5139C6.89638 96.7961 24.9275 114.714 49.3766 119.982C55.6973 121.344 67.1216 121.339 73.5321 119.972C86.1905 117.273 96.4619 111.623 105.3 102.5C113.712 93.8143 118.742 84.3778 121.283 72.5139C122.574 66.4866 122.669 55.7138 121.486 49.4589C116.855 24.9757 97.4486 5.61722 72.7958 0.889013C67.6363 -0.100149 57.4304 -0.305176 52.5553 0.483293ZM64.3185 28.9072C69.2861 29.8109 73.4968 32.9995 76.0033 37.7554C77.2744 40.1668 77.3743 40.6718 77.3743 44.6908C77.3743 48.7129 77.2748 49.214 75.9972 51.644C69.6307 63.7506 53.2781 63.7506 46.9116 51.644C45.6318 49.2097 45.5349 48.7203 45.5419 44.6908C45.5484 40.8322 45.6824 40.0896 46.7602 37.9297C48.9805 33.4811 53.34 30.0125 57.9525 29.0251C61.0823 28.3549 61.2659 28.3515 64.3185 28.9072ZM58.069 37.3883C53.6454 39.5552 52.0161 45.0406 54.6452 48.9171C58.9348 55.2426 68.5908 53.0411 69.2119 45.5959C69.4636 42.5825 69.1644 41.4208 67.6887 39.6778C65.3825 36.9544 61.057 35.9249 58.069 37.3883ZM47.2623 62.2634C57.019 66.7424 65.3018 66.7935 75.2015 62.4355C77.6042 61.3779 80.156 60.5135 80.8722 60.5153C82.4112 60.5183 84.5067 61.7892 85.2919 63.1954C86.0518 64.5564 86.0221 67.2218 85.23 68.7441C84.4932 70.1598 78.3457 73.4563 74.2205 74.6479L71.8148 75.3427L75.9653 79.5226C78.248 81.8217 80.3335 84.1286 80.5996 84.6492C81.8912 87.1754 80.4735 90.8611 77.7795 91.9799C74.7788 93.2257 73.6133 92.6067 67.2342 86.3782L61.4544 80.735L55.6746 86.3782C49.2955 92.6067 48.1299 93.2257 45.1292 91.9799C42.4352 90.8611 41.0175 87.1754 42.3092 84.6492C42.5752 84.1286 44.6507 81.8317 46.9208 79.5451L51.0486 75.3882L48.0724 74.4025C43.3936 72.8529 38.3951 70.1204 37.6618 68.7112C36.8849 67.2179 36.8626 64.5456 37.6169 63.1954C38.4121 61.7714 40.5037 60.5183 42.0911 60.5153C42.8374 60.5135 45.1646 61.3003 47.2623 62.2634Z" fill="url(#paint0_linear)" fill-opacity="0.3"/>
        <defs>
        <linearGradient id="paint0_linear" x1="61.4462" y1="0" x2="61.4462" y2="121" gradientUnits="userSpaceOnUse">
        <stop stop-color="white"/>
        <stop offset="1" stop-color="white" stop-opacity="0"/>
        </linearGradient>
        </defs>
    </symbol>

    <symbol id="telegram" viewBox="0 0 121 121">
        <path d="M60.8076 121C94.2208 121 121.308 93.9132 121.308 60.5C121.308 27.0868 94.2208 0 60.8076 0C27.3944 0 0.307617 27.0868 0.307617 60.5C0.307617 93.9132 27.3944 121 60.8076 121Z" fill="#0394DB"/>
        <path d="M60.8076 121C94.2208 121 121.308 93.9132 121.308 60.5C121.308 27.0868 94.2208 0 60.8076 0C27.3944 0 0.307617 27.0868 0.307617 60.5C0.307617 93.9132 27.3944 121 60.8076 121Z" fill="url(#paint0_linear)" fill-opacity="0.4"/>
        <path d="M27.9916 59.189L86.3237 36.6981C89.0311 35.72 91.3956 37.3586 90.5184 41.4524L90.5234 41.4474L80.5913 88.2391C79.8553 91.5565 77.884 92.3632 75.1262 90.8003L60.0012 79.6531L52.7059 86.6812C51.8992 87.4879 51.2186 88.1685 49.6557 88.1685L50.7296 72.7763L78.7612 47.452C79.9813 46.3781 78.489 45.7731 76.8807 46.842L42.2394 68.6522L27.306 63.9937C24.0642 62.9652 23.9936 60.7519 27.9916 59.189V59.189Z" fill="white"/>
        <defs>
        <linearGradient id="paint0_linear" x1="60.8076" y1="0" x2="60.8076" y2="121" gradientUnits="userSpaceOnUse">
        <stop stop-color="white"/>
        <stop offset="1" stop-color="white" stop-opacity="0"/>
        </linearGradient>
        </defs>
    </symbol>

    <symbol id="vkontakte" viewBox="0 0 121 121">
        <rect x="15.125" y="30.25" width="90.75" height="75.625" fill="white"/>
        <path fill-rule="evenodd" clip-rule="evenodd" d="M8.81364 1.45445C5.14751 3.21743 2.99402 5.39935 1.28574 9.0816L0 11.8544V60.504V109.154L1.28574 111.926C2.99502 115.611 5.14953 117.792 8.81364 119.55L11.8389 121H60.4955H109.152L112.177 119.55C115.841 117.792 117.996 115.611 119.705 111.926L120.991 109.154L120.995 60.504L121 11.8544L119.549 8.82953C117.908 5.40692 115.741 3.15693 112.429 1.43731L110.16 0.259129L60.9997 0.129564L11.8389 0L8.81364 1.45445ZM63.4875 35.8505C64.5998 36.1837 65.947 36.8638 66.481 37.3609C67.7602 38.5527 68.2397 42.2778 67.797 47.5884C67.3528 52.9258 67.8756 57.6471 69.0757 59.1237L69.9918 60.252L71.4202 59.1988C73.8006 57.4439 76.4467 53.5434 80.1507 46.3296C82.0894 42.5536 84.0079 39.1889 84.4138 38.8522C85.2569 38.1524 100.822 37.8595 102.723 38.5073C105.843 39.5706 102.974 45.9253 94.6226 56.4533C90.9832 61.0404 89.999 62.9879 90.4371 64.7343C90.6187 65.4562 93.3817 68.7654 96.5779 72.0892C102.269 78.0068 103.858 80.3682 103.858 82.9106C103.858 85.3098 102.236 85.7736 93.6848 85.821C88.8716 85.8477 85.4172 85.6425 84.5237 85.2775C83.7346 84.9549 80.6887 82.3117 77.7557 79.4038C72.0192 73.7166 70.7552 73.1136 69.2824 75.3621C68.8331 76.0472 68.2301 78.3728 67.9427 80.5295C67.62 82.9484 67.1188 84.6922 66.6343 85.0809C65.524 85.9717 57.3688 85.8881 53.6684 84.9473C47.7737 83.449 43.4879 80.888 38.5622 75.9202C30.7872 68.0782 17.9394 47.1397 17.2723 41.2242C16.9446 38.3168 17.1084 38.2543 25.8545 37.9382C32.5192 37.6977 32.8616 37.734 34.0006 38.8038C35.0604 39.7989 37.6234 44.6271 41.5159 52.9606C43.4268 57.0517 46.1072 59.9999 47.9164 59.9999C50.3063 59.9999 50.9174 58.1235 50.9043 50.8245C50.8912 43.334 49.9836 40.5299 47.4066 40.0147C45.5743 39.6482 45.5123 39.3306 47.0078 37.9684C48.7816 36.3531 50.2267 35.7673 53.5928 35.3C57.2004 34.7989 60.6094 34.9884 63.4875 35.8505Z" fill="#4D76A1"/>
        <path fill-rule="evenodd" clip-rule="evenodd" d="M8.81364 1.45445C5.14751 3.21743 2.99402 5.39935 1.28574 9.0816L0 11.8544V60.504V109.154L1.28574 111.926C2.99502 115.611 5.14953 117.792 8.81364 119.55L11.8389 121H60.4955H109.152L112.177 119.55C115.841 117.792 117.996 115.611 119.705 111.926L120.991 109.154L120.995 60.504L121 11.8544L119.549 8.82953C117.908 5.40692 115.741 3.15693 112.429 1.43731L110.16 0.259129L60.9997 0.129564L11.8389 0L8.81364 1.45445ZM63.4875 35.8505C64.5998 36.1837 65.947 36.8638 66.481 37.3609C67.7602 38.5527 68.2397 42.2778 67.797 47.5884C67.3528 52.9258 67.8756 57.6471 69.0757 59.1237L69.9918 60.252L71.4202 59.1988C73.8006 57.4439 76.4467 53.5434 80.1507 46.3296C82.0894 42.5536 84.0079 39.1889 84.4138 38.8522C85.2569 38.1524 100.822 37.8595 102.723 38.5073C105.843 39.5706 102.974 45.9253 94.6226 56.4533C90.9832 61.0404 89.999 62.9879 90.4371 64.7343C90.6187 65.4562 93.3817 68.7654 96.5779 72.0892C102.269 78.0068 103.858 80.3682 103.858 82.9106C103.858 85.3098 102.236 85.7736 93.6848 85.821C88.8716 85.8477 85.4172 85.6425 84.5237 85.2775C83.7346 84.9549 80.6887 82.3117 77.7557 79.4038C72.0192 73.7166 70.7552 73.1136 69.2824 75.3621C68.8331 76.0472 68.2301 78.3728 67.9427 80.5295C67.62 82.9484 67.1188 84.6922 66.6343 85.0809C65.524 85.9717 57.3688 85.8881 53.6684 84.9473C47.7737 83.449 43.4879 80.888 38.5622 75.9202C30.7872 68.0782 17.9394 47.1397 17.2723 41.2242C16.9446 38.3168 17.1084 38.2543 25.8545 37.9382C32.5192 37.6977 32.8616 37.734 34.0006 38.8038C35.0604 39.7989 37.6234 44.6271 41.5159 52.9606C43.4268 57.0517 46.1072 59.9999 47.9164 59.9999C50.3063 59.9999 50.9174 58.1235 50.9043 50.8245C50.8912 43.334 49.9836 40.5299 47.4066 40.0147C45.5743 39.6482 45.5123 39.3306 47.0078 37.9684C48.7816 36.3531 50.2267 35.7673 53.5928 35.3C57.2004 34.7989 60.6094 34.9884 63.4875 35.8505Z" fill="url(#paint0_linear)" fill-opacity="0.3"/>
        <defs>
        <linearGradient id="paint0_linear" x1="60.5" y1="0" x2="60.5" y2="121" gradientUnits="userSpaceOnUse">
        <stop stop-color="white"/>
        <stop offset="1" stop-color="white" stop-opacity="0"/>
        </linearGradient>
        </defs>
    </symbol>
</svg>
